<svg xmlns="http://www.w3.org/2000/svg" viewBox="0 0 64 64">
  <rect x="0" y="0" width="64" height="64" rx="14" fill="#ffffff"/>
  <rect x="0" y="21.5" width="64" height="21" fill="#205e98"/>
  <rect x="0" y="42.5" width="64" height="21.5" fill="#c00000"/>
  <path d="M14 0H0v14A14 14 0 0 1 14 0Zm36 0h14v14A14 14 0 0 0 50 0ZM0 50v14h14A14 14 0 0 1 0 50Zm64 0v14H50A14 14 0 0 0 64 50Z" fill-opacity="0"/>
  <rect x="0" y="0" width="64" height="64" rx="14" fill="none" stroke="rgba(11,48,65,.12)" stroke-width="2"/>
</svg>
